HIERARCHY
ROOT Hips
{
	OFFSET 0.000000 0.950780 0.000000
	CHANNELS 6 Xposition Yposition Zposition Zrotation Yrotation Xrotation 
	JOINT LeftUpLeg
	{
		OFFSET 0.056811 -0.118698 0.003855
		CHANNELS 3 Zrotation Yrotation Xrotation
		JOINT LeftLeg
		{
			OFFSET 0.010847 -0.373097 0.010862
			CHANNELS 3 Zrotation Yrotation Xrotation
			JOINT LeftFoot
			{
				OFFSET -0.056927 -0.407567 -0.128846
				CHANNELS 3 Zrotation Yrotation Xrotation
				End Site #name: LeftToeBase
				{
					OFFSET 0.035213 -0.033257 0.130343
				}
			}
		}
	}
	JOINT rightUpLeg
	{
		OFFSET -0.060355 -0.127276 -0.007853
		CHANNELS 3 Zrotation Yrotation Xrotation
		JOINT RightLeg
		{
			OFFSET -0.128056 -0.307616 0.145228
			CHANNELS 3 Zrotation Yrotation Xrotation
			JOINT RightFoot
			{
				OFFSET -0.016129 -0.427058 0.047128
				CHANNELS 3 Zrotation Yrotation Xrotation
				End Site #name: RightToeBase
				{
					OFFSET -0.090829 -0.060709 0.106927
				}
			}
		}
	}
	JOINT Spine
	{
		OFFSET 0.010156 0.071698 -0.051180
		CHANNELS 3 Zrotation Yrotation Xrotation
		JOINT Spine1
		{
			OFFSET 0.007138 0.135754 0.067196
			CHANNELS 3 Zrotation Yrotation Xrotation
			JOINT Spine2
			{
				OFFSET -0.001935 0.060165 0.022110
				CHANNELS 3 Zrotation Yrotation Xrotation
				JOINT Neck
				{
					OFFSET -0.008419 0.220347 0.045475
					CHANNELS 3 Zrotation Yrotation Xrotation
					End Site #name: Head
					{
						OFFSET 0.001385 0.052806 0.062896
					}
				}
				JOINT LeftShoulder
				{
					OFFSET 0.075395 0.128340 0.031482
					CHANNELS 3 Zrotation Yrotation Xrotation
					JOINT LeftArm
					{
						OFFSET 0.125807 -0.019705 0.003693
						CHANNELS 3 Zrotation Yrotation Xrotation
						JOINT LeftForeArm
						{
							OFFSET 0.026956 -0.273830 -0.002832
							CHANNELS 3 Zrotation Yrotation Xrotation
							End Site #name: LeftHand
							{
								OFFSET -0.010758 -0.200669 0.164700
							}
						}
					}
				}
				JOINT RightShoulder
				{
					OFFSET -0.079941 0.134775 0.008744
					CHANNELS 3 Zrotation Yrotation Xrotation
					JOINT RightArm
					{
						OFFSET -0.117096 -0.018781 -0.000298
						CHANNELS 3 Zrotation Yrotation Xrotation
						JOINT RightForeArm
						{
							OFFSET -0.025919 -0.288599 0.058726
							CHANNELS 3 Zrotation Yrotation Xrotation
							End Site #name: RightHand
							{
								OFFSET -0.037486 -0.102965 0.243889
							}
						}
					}
				}
			}
		}
	}
}
MOTION
Frames: 11
Frame Time: 0.041667
-0.015481 0.946765 0.454887 -1.345345 -4.932935 1.960599 2.654615 0.078978 0.295019 -1.319468 0.911382 -3.943787 -0.804561 -4.982641 -1.452047 2.243523 -5.590745 15.906452 22.094301 0.007527 10.533912 -26.918271 -35.471543 2.118831 3.778405 -0.928261 -10.511323 -2.088392 0.765197 -0.052835 -4.382698 -1.714749 0.805055 -3.289762 3.869500 -1.065859 1.488710 -7.183127 -1.263881 8.950253 0.019865 5.584826 -14.451476 -13.775776 -11.637004 -2.102055 -25.781402 4.701228 -4.265208 -2.465336 32.422317 1.091461 -2.982836 17.678740 
-0.006936 0.946079 0.436752 -0.652693 -5.357367 3.237868 1.576823 0.013804 -2.096585 -1.713146 1.057743 -4.253609 -0.905362 -4.835470 -1.013942 3.551043 -7.135725 20.665340 21.214158 0.359880 8.903981 -27.228313 -36.223938 3.216705 4.052643 -0.839319 -12.711391 -2.033385 0.763847 0.307334 -4.527699 -1.904333 0.606575 -3.318351 3.907773 -0.950988 1.522285 -7.912486 -1.391251 8.560690 0.061037 6.357321 -15.517720 -14.592990 -10.437677 -2.557795 -27.731494 5.186525 -4.325821 -2.476864 32.763947 1.065225 -2.914728 17.208035 
0.000680 0.945008 0.417794 0.134715 -5.774423 4.516613 0.368291 -0.111525 -4.720066 -1.916783 1.107782 -4.205144 -0.974871 -4.508912 -0.531834 4.996465 -8.575618 25.025609 19.090601 0.967683 5.627011 -26.902251 -36.379611 4.206018 4.443668 -0.794000 -14.770630 -1.958199 0.756955 0.713199 -4.829167 -2.088395 0.427642 -3.008099 3.551358 -0.777955 1.492358 -8.726242 -1.526688 8.226094 0.105921 7.220745 -16.343079 -15.042309 -8.757608 -3.154060 -29.621059 5.718508 -4.288478 -2.475909 32.678119 1.291319 -2.302329 16.220890 
0.007518 0.943809 0.397641 0.960749 -6.186321 5.711556 -0.847786 -0.294857 -7.380801 -1.907309 1.077489 -3.971531 -1.066683 -4.120170 0.082247 6.402876 -9.806363 28.637901 16.288142 1.607690 1.154395 -26.636388 -36.503720 5.002782 5.056346 -0.841437 -16.472966 -1.897017 0.746998 0.966636 -5.275521 -2.266649 0.417283 -2.399237 2.841319 -0.603012 1.341748 -9.670585 -1.669962 8.009368 0.146645 8.094314 -16.839369 -15.108580 -6.860054 -3.702607 -31.346634 6.227372 -4.167640 -2.458599 32.123746 1.677079 -1.319214 14.952860 
0.013763 0.943258 0.376098 2.268762 -6.643288 6.804987 -2.261228 -0.584723 -10.562094 -2.100371 1.079431 -3.531559 -1.291615 -3.542499 1.310370 8.336806 -11.409584 33.082807 10.938181 2.193624 -7.180867 -26.277140 -36.525566 5.732853 5.781106 -0.857770 -18.642686 -1.464633 0.601182 1.337013 -6.334263 -2.419276 0.859778 -1.118817 1.331017 0.463372 1.500279 -11.469228 -1.995121 7.403243 0.221379 8.851282 -17.139724 -14.717691 -3.668936 -4.244368 -33.094445 6.760370 -3.536670 -2.445275 30.958379 2.074819 0.148704 12.326988 
0.019613 0.942499 0.352747 3.077330 -7.030577 7.588792 -3.247616 -0.850054 -13.039159 -1.709091 0.958802 -3.442257 -1.716978 -3.927517 2.369440 10.049981 -11.961445 34.783998 7.191976 2.164398 -13.230438 -27.258047 -37.613014 6.485172 7.009324 -1.154019 -19.368978 -1.524108 0.605977 0.961741 -6.926134 -2.631011 1.374473 -0.404896 0.475834 0.359587 1.271649 -13.109584 -2.241805 7.507123 0.233630 9.501235 -16.922340 -14.142968 -1.714133 -4.451125 -34.512907 7.133539 -3.213948 -2.390330 29.621038 2.700175 1.835194 10.724413 
0.024778 0.942134 0.328836 3.778815 -7.372275 8.154530 -3.971630 -1.101032 -15.282164 -1.277013 0.839739 -3.463956 -2.210105 -4.444122 3.500496 11.619864 -12.103164 35.446350 3.782189 1.756707 -18.291694 -28.541620 -38.745757 6.883810 8.464905 -1.552888 -19.689204 -1.698995 0.643401 0.380987 -7.426758 -2.854467 1.977698 0.315667 -0.382510 0.197243 0.978801 -14.854435 -2.489448 7.889233 0.210742 9.936046 -16.536040 -13.456247 0.229553 -4.571728 -35.802161 7.457018 -2.909506 -2.328957 28.315124 3.321563 3.565610 9.278872 
0.028863 0.942453 0.305351 4.348293 -7.642803 8.513580 -4.460485 -1.321360 -17.277505 -0.761429 0.714191 -3.616546 -2.824373 -5.097470 4.849600 12.890130 -11.965956 35.420123 0.986749 1.165739 -21.968193 -29.545336 -39.466180 6.815368 9.994719 -1.996642 -19.794445 -1.917911 0.694767 -0.204985 -7.807956 -3.070894 2.592628 1.110147 -1.330202 0.153094 0.696207 -16.648726 -2.738744 8.418542 0.167255 10.258624 -15.862100 -12.614958 1.937894 -4.558238 -36.948406 7.706795 -2.688734 -2.266835 27.155889 3.831985 5.034357 8.166801 
0.031663 0.943574 0.283461 4.811579 -7.835656 8.691457 -4.820014 -1.517797 -19.049776 -0.161393 0.563598 -3.748805 -3.528420 -5.740338 6.427752 13.792704 -11.722486 35.102471 -1.112626 0.587993 -24.460659 -30.035271 -39.722294 6.519839 11.409306 -2.421379 -19.790328 -2.113385 0.741550 -0.672248 -8.042509 -3.277895 3.167313 1.899800 -2.292331 0.429644 0.476854 -18.364317 -2.979408 8.963512 0.118953 10.570872 -14.911864 -11.655939 3.291434 -4.475861 -38.033850 7.919531 -2.590950 -2.210942 26.218141 4.247187 6.172923 7.494517 
0.033149 0.945491 0.264165 5.187978 -7.963389 8.708921 -5.162742 -1.712025 -20.679837 0.550624 0.351350 -3.658310 -4.277730 -6.309448 8.146255 14.406566 -11.470604 34.719166 -2.602869 0.116023 -26.144630 -30.182138 -39.706483 6.165018 12.645693 -2.802792 -19.733705 -2.255389 0.775048 -1.000770 -8.141302 -3.466941 3.717504 2.567127 -3.145952 1.066382 0.303602 -19.806941 -3.179660 9.479896 0.069867 10.830690 -13.789416 -10.640219 4.398905 -4.382361 -39.116409 8.127226 -2.577831 -2.166277 25.510209 4.574582 6.904761 7.356396 
0.033338 0.948090 0.248258 5.448238 -8.055284 8.617983 -5.537973 -1.921104 -22.265446 1.344277 0.061968 -3.218348 -5.020646 -6.796509 9.861377 14.850231 -11.253181 34.378224 -3.614165 -0.231905 -27.296173 -30.077804 -39.466057 5.703127 13.684851 -3.129776 -19.661249 -2.323019 0.789570 -1.177706 -8.165228 -3.618424 4.210099 3.015349 -3.775391 1.980321 0.168471 -20.826129 -3.316144 10.003590 0.016610 10.996763 -12.642870 -9.661513 5.346686 -4.278788 -40.163265 8.322606 -2.615514 -2.138584 25.086672 4.809138 7.242094 7.645767 
